<svg width="125" height="50" viewBox="0 0 125 50" fill="none"
    xmlns="http://www.w3.org/2000/svg">
    <path d="M59.1533 35.0839H54.7183V14.9712H59.1533V35.0839Z" fill="#040415"></path>
    <path d="M63.0485 14.9712H69.3447L74.0344 28.7973L78.6076 14.9712H84.7613V35.0839H80.6113V20.8041L75.6711 35.0968H72.2553L67.2546 20.9423V35.0968H63.0485V14.9712Z" fill="#040415"></path>
    <path d="M106.31 35.0839H101.676L100.096 30.5947H92.6121L90.9754 35.0839H86.4454L94.0976 14.9409H98.6449L106.31 35.0839ZM96.3777 19.8881L93.696 27.3714H99.0335L96.3777 19.8881Z" fill="#040415"></path>
    <path d="M108.003 14.9712H112.494L120.768 28.4473V14.9712H125V35.0839H120.595L112.265 21.5818V35.0839H108.003V14.9712Z" fill="#040415"></path>
    <path d="M55.6876 38.2991H54.7899V37.5H55.6876V38.2991ZM55.6876 42.1956H54.7899V38.7929H55.6876V42.1956Z" fill="#040415"></path>
    <path d="M58.7385 42.1956V40.2114C58.7385 39.7895 58.6667 39.4753 58.1642 39.4753C57.6616 39.4753 57.4283 39.8793 57.4283 40.3731V42.1687H56.5309V38.766H57.4283V39.2418C57.5566 39.0627 57.7267 38.9175 57.9237 38.819C58.1207 38.7204 58.3388 38.6714 58.559 38.6762C58.7206 38.6631 58.8832 38.6861 59.0348 38.7435C59.1865 38.8008 59.3235 38.8912 59.436 39.0081C59.5485 39.1249 59.6336 39.2653 59.6853 39.419C59.7369 39.5728 59.7538 39.7361 59.7346 39.8972V42.1687L58.7385 42.1956Z" fill="#040415"></path>
    <path d="M63.5038 38.7927L62.3552 42.1955H61.3052L60.1385 38.7927H61.1347L61.8526 41.1181L62.5795 38.7927H63.5038Z" fill="#040415"></path>
    <path d="M65.5589 42.2944C65.3224 42.3067 65.0859 42.2683 64.8655 42.1817C64.645 42.0951 64.4457 41.9622 64.2808 41.7921C64.1159 41.6221 63.9892 41.4187 63.9094 41.1956C63.8296 40.9725 63.7984 40.7349 63.8179 40.4988C63.8057 40.2673 63.8408 40.0358 63.921 39.8184C64.0012 39.6009 64.1249 39.4021 64.2844 39.2341C64.444 39.066 64.6361 38.9323 64.849 38.841C65.062 38.7497 65.2913 38.7028 65.523 38.7031C66.555 38.7031 67.2101 39.4573 67.2101 40.6514V40.7412H64.7692C64.7692 41.3248 65.0653 41.639 65.5678 41.639C65.7219 41.647 65.874 41.6025 65.9995 41.5128C66.125 41.4231 66.2165 41.2935 66.2589 41.1452H67.1563C67.0607 41.4901 66.8502 41.7921 66.5597 42.0011C66.2693 42.2101 65.9162 42.3136 65.5589 42.2944ZM65.5589 39.3765C65.3581 39.3789 65.1664 39.4603 65.0253 39.6032C64.8842 39.746 64.8051 39.9388 64.8051 40.1396H66.2499C66.2523 40.0418 66.2354 39.9444 66.2001 39.8531C66.1649 39.7617 66.112 39.6783 66.0445 39.6074C65.977 39.5365 65.8962 39.4796 65.8067 39.44C65.7172 39.4004 65.6208 39.3788 65.523 39.3765H65.5589Z" fill="#040415"></path>
    <path d="M69.8396 39.7807C69.7858 39.4305 69.5704 39.3138 69.1935 39.3138C68.8165 39.3138 68.664 39.4395 68.664 39.655C68.664 39.8704 68.9601 39.9782 69.4986 40.0859C70.037 40.1937 70.8178 40.3732 70.8178 41.1453C70.8178 41.9175 70.2344 42.2945 69.2652 42.2945C68.296 42.2945 67.6858 41.9624 67.6678 41.0915H68.5653C68.5653 41.4955 68.8614 41.6571 69.2832 41.6571C69.705 41.6571 69.9024 41.4955 69.9024 41.2351C69.9024 40.9748 69.6242 40.894 69.1396 40.7772C68.655 40.6605 67.7397 40.5528 67.7397 39.7358C67.7397 39.0714 68.2871 38.6943 69.2294 38.6943C70.0101 38.6943 70.6832 38.9906 70.7101 39.7807H69.8396Z" fill="#040415"></path>
    <path d="M73.2862 39.4303H72.595V41.0284C72.595 41.3606 72.595 41.5132 72.999 41.5132C73.0945 41.5219 73.1907 41.5219 73.2862 41.5132V42.2225C73.0979 42.2347 72.909 42.2347 72.7207 42.2225C71.9127 42.2225 71.6614 42.016 71.6614 41.19V39.3944H71.0958V38.7569H71.6614V37.7334H72.5591V38.7569H73.2503L73.2862 39.4303Z" fill="#040415"></path>
    <path d="M19.9768 30.0415H12.4456V37.5119H19.9768V30.0415Z" fill="#040415"></path>
    <path d="M40.0703 7.32812H7.32397V42.7014H42.6786V7.32812H40.0703ZM20.6073 9.92053H24.373V13.6925H20.6073V9.92053ZM14.9589 9.92053H17.4679V22.485H27.5124V9.92053H35.0567V12.4351H30.0257V24.9953H14.9589V9.92053ZM22.4902 37.4907V40.0831H9.9366V9.93345H12.4456V27.5229H32.5347V14.9584H35.0567V30.0332H22.4902V37.4907ZM28.7691 40.0831H25.0035V36.3155H28.7691V40.0831ZM35.048 40.0831H31.2781V36.3155H35.0567L35.048 40.0831ZM40.0703 40.0831H37.557V9.93345H40.0703V40.0831Z" fill="#040415"></path>
    <path d="M21.3717 7.32786L25.0034 3.6985L28.6309 7.32786H32.3231L26.8474 1.84925L24.9919 0L23.1552 1.84925L17.6794 7.32786H21.3717Z" fill="#040415"></path>
    <path d="M7.32399 28.6459L3.69222 25.0166L7.32399 21.3829V17.6887L1.84827 23.1673L0 24.9999L1.84827 26.8615L7.32399 32.3401V28.6459Z" fill="#040415"></path>
    <path d="M28.6309 42.7012L25.0034 46.3349L21.3717 42.7012H17.6794L23.1552 48.1798L24.9919 49.9999L26.8474 48.1798L32.3231 42.7012H28.6309Z" fill="#040415"></path>
    <path d="M48.1543 23.1676L42.6786 17.689V21.3831L46.3104 25.0168L42.6786 28.6462V32.3404L48.1543 26.8617L49.9838 25.0002L48.1543 23.1676Z" fill="#040415"></path>
</svg>