<?xml version="1.0" encoding="UTF-8"?>
<!DOCTYPE svg PUBLIC "-//W3C//DTD SVG 1.1//EN" "http://www.w3.org/Graphics/SVG/1.1/DTD/svg11.dtd">
<!-- Creator: CorelDRAW 2021.5 -->
<svg xmlns="http://www.w3.org/2000/svg" xml:space="preserve" width="150mm" height="36mm" version="1.1" style="shape-rendering:geometricPrecision; text-rendering:geometricPrecision; image-rendering:optimizeQuality; fill-rule:evenodd; clip-rule:evenodd"
viewBox="0 0 15000 3600"
 xmlns:xlink="http://www.w3.org/1999/xlink"
 xmlns:xodm="http://www.corel.com/coreldraw/odm/2003">
 <defs>
  <style type="text/css">
   <![CDATA[
    .fil0 {fill:#FAA500;fill-rule:nonzero}
   ]]>
  </style>
 </defs>
 <g id="Layer_x0020_1">
  <metadata id="CorelCorpID_0Corel-Layer"/>
  <g id="_2062140996000">
   <path class="fil0" d="M633.81 11.59l13726.52 0c175.23,0 334.46,71.61 449.8,186.95 115.34,115.35 186.94,274.57 186.94,449.8l0 25.17c-65.15,-256.09 -298.31,-446.97 -573.95,-446.97l-13852.1 0c-275.64,0 -508.8,190.88 -573.95,446.97l0 -25.17c0,-175.23 71.6,-334.45 186.94,-449.8 115.34,-115.34 274.57,-186.95 449.8,-186.95zm14363.26 2930.13l0 25.16c0,175.23 -71.6,334.46 -186.94,449.8 -115.34,115.33 -274.57,186.94 -449.8,186.94l-13726.52 0c-175.23,0 -334.44,-71.6 -449.8,-186.94 -115.34,-115.34 -186.94,-274.57 -186.94,-449.8l0 -25.16c65.15,256.09 298.31,446.95 573.95,446.95l13852.1 0c275.64,0 508.8,-190.86 573.95,-446.95z"/>
   <path class="fil0" d="M11892.57 2123.06c0,279.67 135.11,485.72 432.9,485.72 135.24,0 261.93,-71.57 323.3,-193.54l0 175.93 288.8 0 0 -1116.62 -288.8 0 0 594.54c0,139.58 -90.78,270.42 -238.59,270.42 -152.97,0 -229.52,-78.01 -229.52,-234.05l0 -630.91 -288.09 0 0 648.51zm-376.73 125.69c99.42,0 180.02,80.59 180.02,180.01 0,99.43 -80.6,180.02 -180.02,180.02 -99.42,0 -180.02,-80.59 -180.02,-180.02 0,-99.42 80.6,-180.01 180.02,-180.01zm-558.12 -1242.32c99.42,0 180.02,80.6 180.02,180.02 0,99.42 -80.6,180.02 -180.02,180.02 -99.42,0 -180.02,-80.6 -180.02,-180.02 0,-99.42 80.6,-180.02 180.02,-180.02zm-10124.24 270.48l458.35 0 0 1314.26 306.4 0 0 -1197.43 -153.17 -32.56 0 -84.27c204.22,0 408.45,0 612.66,0l0 -270.48 -1224.24 0 0 270.48zm1151.51 756.15c0,342.88 235.21,575.72 577.97,575.72 237.38,0 451.6,-121.65 526.62,-354.81l-274.89 -58.51c-45.16,103.35 -139.84,161.66 -251.73,161.66 -157.19,0 -272.65,-94.67 -294.41,-251.66l825.16 0c4.54,-33.75 6.77,-63.04 6.77,-87.78 -3.32,-330.33 -205.67,-560.36 -541.6,-560.36 -344.99,0 -573.89,231.56 -573.89,575.74zm294.8 -126.38c37.89,-143.67 133.14,-215.3 285.47,-215.3 131.99,0 229.66,82.93 243.05,215.3l-528.52 0zm1000.01 684.49l287.65 0 0 -1584.74 -287.65 0 0 1584.74zm467.74 -558.11c0,342.88 235.2,575.72 577.95,575.72 237.38,0 451.6,-121.65 526.62,-354.81l-274.89 -58.51c-45.16,103.35 -139.84,161.66 -251.73,161.66 -157.17,0 -272.65,-94.67 -294.39,-251.66l825.16 0c4.52,-33.75 6.76,-63.04 6.76,-87.78 -3.33,-330.33 -205.68,-560.36 -541.61,-560.36 -173.71,0 -312.83,53.65 -417.14,160.89 -104.23,107.3 -156.73,245.66 -156.73,414.85zm294.78 -126.38c37.89,-143.67 133.14,-215.3 285.48,-215.3 131.98,0 229.65,82.93 243.04,215.3l-528.52 0zm928.38 -179.33l144.05 0 0 863.82 288.02 0 0 -746.99 -153.16 -32.56 0 -84.27c146.96,0 293.91,0 440.87,0l0 -252.8 -287.71 0 0 -30.7c0,-78.59 18.37,-190.28 153.17,-190.28l134.54 0 0 -247.14 -191.95 0c-198.15,0 -383.78,96.32 -383.78,395.71l0 72.41 -144.05 0 0 252.8zm769.53 305.71c0,334.14 241.64,575.72 576.11,575.72 331.14,0 575.73,-244.89 575.73,-575.72 0,-331.22 -244.2,-575.74 -575.73,-575.74 -342.06,0 -576.11,234.11 -576.11,575.74zm288.01 0c0,-166.9 115.86,-305.71 288.1,-305.71 171.98,0 287.7,139.14 287.7,305.71 0,166.36 -115.65,306.45 -287.7,306.45 -172.24,0 -288.1,-139.83 -288.1,-306.45zm1015.93 558.11l287.65 0 0 -594.49c0,-139.62 91.07,-269.33 238.57,-269.33 153.04,0 229.53,78.03 229.53,234.06l0 629.76 288.1 0 0 -648.52c0,-273.97 -114.03,-485.34 -413.32,-485.34 -134.06,0 -279.93,70.85 -342.88,193.17l0 -175.93 -287.65 0 0 1116.62zm1197.02 -558.11c0,341.98 242.48,575.72 582.49,575.72 262.77,0 506.26,-177.47 532.99,-449.3l-274.57 -54.02c-19.58,132.82 -123.87,234.05 -260.65,234.05 -179.01,0 -292.23,-132.3 -292.23,-306.45 0,-174.43 113.17,-305.71 292.23,-305.71 136.52,0 241.07,101.44 260.65,234.06l274.57 -54.73c-29.21,-271.19 -267.41,-449.36 -532.99,-449.36 -345.43,0 -582.49,229.01 -582.49,575.74zm1294.8 558.11l287.65 0 0 -594.49c0,-139.63 91.1,-269.33 238.58,-269.33 153.04,0 229.53,78.03 229.53,234.06l0 629.76 288.09 0 0 -648.52c0,-273.98 -114,-485.33 -413.32,-485.33 -134.09,0 -279.86,70.81 -342.88,193.17l0 -644.06 -287.65 0 0 1584.74zm1277.91 0l287.64 0 0 -1116.62 -287.64 0 0 1116.62zm2374.17 0l972.59 0 0 -251.66 -584.73 0 584.73 -630.91 0 -234.05 -972.59 0 0 252.8 585.94 0 -585.94 629.77 0 234.05z"/>
  </g>
 </g>
</svg>
