<svg data-v-20cf7fbc=""
    xmlns="http://www.w3.org/2000/svg" width="124" height="42" viewBox="0 0 124 42" fill="none" class="w-[95px] h-8 md:w-[115px] md:h-[38px] mr-14">
    <path d="M20.8019 39.215C31.0544 39.215 39.3656 30.9037 39.3656 20.6513C39.3656 10.3989 31.0544 2.08765 20.8019 2.08765C10.5495 2.08765 2.23828 10.3989 2.23828 20.6513C2.23828 30.9037 10.5495 39.215 20.8019 39.215Z" fill="#FF5733"></path>
    <path d="M17.6202 6.07086C19.35 4.34096 22.1411 4.34096 23.871 6.07086L35.268 17.4678C36.9979 19.1977 36.9979 21.9888 35.268 23.7187L23.871 35.1156C22.1411 36.8455 19.35 36.8455 17.6202 35.1156L6.2232 23.7187C4.49331 21.9888 4.49331 19.1977 6.2232 17.4678L17.6202 6.07086Z" fill="#7000FF"></path>
    <path d="M8.22656 12.5105C8.22656 10.0683 10.2036 8.09131 12.6458 8.09131H28.8254C31.2676 8.09131 33.2446 10.0683 33.2446 12.5105V28.6901C33.2446 31.1323 31.2676 33.1094 28.8254 33.1094H12.6603C10.2181 33.1094 8.2411 31.1323 8.2411 28.6901L8.22656 12.5105Z" fill="#7000FF"></path>
    <path d="M25.9348 14.9382C26.4872 15.0545 27.0396 15.1708 27.563 15.3017C28.1299 15.447 28.6823 15.6215 29.2493 15.7814C29.3219 15.8104 29.3655 15.8395 29.3655 15.9267C29.3655 17.6712 29.3801 19.4156 29.351 21.1746C29.3219 23.0498 28.7259 24.7507 27.592 26.248C26.3273 27.9052 24.6556 28.9809 22.6204 29.4752C21.8209 29.6641 21.0068 29.7368 20.1782 29.6787C18.2157 29.5624 16.4858 28.8791 15.0031 27.5999C13.4767 26.2916 12.5172 24.6344 12.1247 22.6428C12.0085 22.0759 11.9648 21.5089 11.9648 20.9274C11.9648 19.2702 11.9648 17.6276 11.9648 15.9704C11.9648 15.8541 11.9939 15.825 12.0957 15.7959C13.1569 15.4616 14.2471 15.1854 15.3519 14.9818C15.3665 14.9818 15.3665 14.9818 15.3956 14.9818C15.3956 15.0255 15.3956 15.0691 15.3956 15.1127C15.3956 17.1915 15.381 19.2702 15.3956 21.3345C15.4101 22.3811 15.5409 23.4133 15.9044 24.4018C16.1806 25.1868 16.6021 25.8845 17.2272 26.466C17.8087 27.0039 18.4919 27.3382 19.2624 27.4981C20.3527 27.7307 21.4284 27.7162 22.4896 27.3818C23.7398 26.9893 24.612 26.1462 25.1789 24.9687C25.4842 24.3436 25.6586 23.6749 25.7749 22.9917C25.9058 22.2358 25.9348 21.4653 25.9348 20.6949C25.9348 18.8487 25.9348 16.9879 25.9348 15.1417C25.9348 15.0545 25.9348 15.0109 25.9348 14.9382Z" fill="white"></path>
    <path d="M22.1817 18.7905C21.1641 18.7905 20.1465 18.7905 19.1289 18.7905C19.1289 16.4064 19.1289 14.0224 19.1289 11.6383C19.4487 11.5365 21.5711 11.5365 22.1817 11.6238C22.1817 14.0078 22.1817 16.4064 22.1817 18.7905Z" fill="white"></path>
    <path d="M82.4811 13.6736C82.4811 15.3163 81.5507 16.0722 80.1697 16.0722C78.7887 16.0722 77.9019 15.3308 77.9019 13.6736V8.26587H74.9219V13.7899C74.9219 17.3805 77.931 18.7906 80.1842 18.7906C82.4375 18.7906 85.4611 17.3805 85.4611 13.7899V8.26587H82.4811V13.6736Z" fill="#7000FF"></path>
    <path d="M72.4075 10.7808V8.26587H62.7404V10.7808H68.4534L62.5078 16.0722V18.5871H72.7563V16.0722H66.4619L72.4075 10.7808Z" fill="#7000FF"></path>
    <path d="M100.348 8.06226C98.4578 8.06226 97.0332 8.83271 96.3354 9.99567C95.6231 8.83271 94.0677 8.06226 92.4541 8.06226C89.2705 8.06226 87.6133 10.0829 87.6133 12.5832V18.587H90.5934V13.0193C90.5934 11.8273 91.2184 10.7661 92.6721 10.7661C92.9629 10.7516 93.2681 10.7952 93.5298 10.897C93.806 10.9987 94.0531 11.1586 94.2712 11.3767C94.4747 11.5802 94.6346 11.8419 94.7509 12.1181C94.8527 12.3943 94.8963 12.685 94.8817 12.9757V18.6015H97.8618V12.9757C97.8618 11.7837 98.5741 10.7661 99.9987 10.7661C101.423 10.7661 102.107 11.8273 102.107 13.0193V18.6015H105.087V12.5978C105.087 10.0974 103.546 8.07679 100.348 8.06226Z" fill="#7000FF"></path>
    <path d="M57.5798 13.6736C57.5798 15.3163 56.6495 16.0722 55.283 16.0722C53.9165 16.0722 53.0007 15.3308 53.0007 13.6736V8.26587H50.0352V13.7899C50.0352 17.3805 53.0298 18.7906 55.2975 18.7906C57.5653 18.7906 60.5599 17.3805 60.5599 13.7899V8.26587H57.5798V13.6736Z" fill="#7000FF"></path>
    <path d="M85.8272 27.847C85.8272 25.6664 84.199 24.5762 80.9428 24.5762C78.7041 24.5762 76.0874 25.1867 76.0874 27.5853C76.0874 28.85 76.8433 29.8531 77.9627 30.202C79.1111 30.5654 80.2741 30.7253 81.4515 30.8271C82.1057 30.8852 83.3413 31.0742 83.3413 31.801C83.3268 32.4697 82.5709 32.8041 81.0736 32.8041C79.5181 32.8041 78.8494 32.4552 78.8494 31.5539V31.2486H75.8984V31.5539C75.8984 33.8071 77.6138 34.9265 81.0736 34.9265C84.5479 34.941 86.2923 33.8653 86.2923 31.7574C86.2923 30.1584 85.1585 29.1844 83.7338 28.8936C82.3674 28.6174 80.9282 28.5738 79.7943 28.2831C79.3001 28.1523 79.0384 27.8761 79.0384 27.5853C79.0384 26.9748 79.649 26.6695 80.8846 26.6695C82.1202 26.6695 82.8907 26.8439 82.8907 27.8179L85.8272 27.847Z" fill="#7000FF"></path>
    <path d="M57.288 29.4897C57.288 27.9197 56.3867 27.1928 55.0784 27.1928C53.741 27.1928 52.8833 27.9197 52.8833 29.4897V34.7084H50.0195V29.4024C50.0195 25.9426 52.9124 24.5762 55.0784 24.5762C57.2298 24.5762 60.1372 25.9281 60.1372 29.4024V34.7084H57.2735L57.288 29.4897Z" fill="#7000FF"></path>
    <path d="M73.2806 31.2195V24.7652H70.4459L70.4604 26.3351C69.8499 25.4193 68.7596 24.5762 66.8407 24.5762C63.5263 24.5762 61.8255 27.1492 61.8255 29.7368C61.7674 32.3534 63.6862 34.9555 66.6954 34.9555C68.2799 34.9555 69.7336 34.2432 70.4314 32.9931C70.7221 33.8071 71.4199 34.7229 72.9026 34.7229H74.5308V32.3098H74.0656C73.5423 32.2953 73.2806 32.0772 73.2806 31.2195ZM67.4513 32.4406C65.8232 32.4406 64.6021 31.3213 64.6021 29.7368C64.6021 28.1813 65.8232 27.0765 67.4513 27.0765C69.1376 27.0765 70.3441 28.1668 70.3441 29.7368C70.3441 31.3213 69.1376 32.4406 67.4513 32.4406Z" fill="#7000FF"></path>
    <path d="M90.8833 24.7651H88.0195V34.7084H90.8833V24.7651Z" fill="#7000FF"></path>
    <path d="M101.57 24.7651L98.8954 31.801L95.6972 24.7651H92.3828L97.4562 35.1736C96.9765 36.3511 96.584 36.7 95.6245 36.7H94.1418V39.2003H95.8717C98.0086 39.2003 99.1716 38.0228 100.349 35.1881L104.667 24.7797L101.57 24.7651Z" fill="#7000FF"></path>
    <path d="M116.046 31.2195V24.7652H113.212L113.226 26.3351C112.601 25.4193 111.525 24.5762 109.592 24.5762C106.277 24.5762 104.591 27.1492 104.591 29.7368C104.533 32.3534 106.452 34.9555 109.461 34.9555C111.06 34.9555 112.514 34.2432 113.212 32.9931C113.488 33.8071 114.2 34.7229 115.683 34.7229H117.311V32.3098H116.846C116.279 32.2953 116.046 32.0772 116.046 31.2195ZM110.202 32.4406C108.574 32.4406 107.353 31.3213 107.353 29.7368C107.353 28.1813 108.574 27.0765 110.202 27.0765C111.874 27.0765 113.095 28.1668 113.095 29.7368C113.095 31.3213 111.874 32.4406 110.202 32.4406Z" fill="#7000FF"></path>
</svg>